<?xml version="1.0" encoding="utf-8"?>
<!-- Generator: Adobe Illustrator 16.0.0, SVG Export Plug-In . SVG Version: 6.00 Build 0)  -->
<!DOCTYPE svg PUBLIC "-//W3C//DTD SVG 1.1//EN" "http://www.w3.org/Graphics/SVG/1.1/DTD/svg11.dtd">
<svg version="1.1" id="Layer_1" xmlns="http://www.w3.org/2000/svg" xmlns:xlink="http://www.w3.org/1999/xlink" x="0px" y="0px"
	 width="89.111px" height="33.959px" viewBox="0 0 89.111 33.959" enable-background="new 0 0 89.111 33.959" xml:space="preserve">
<path fill="#0780B4" d="M17.472,14.748h-0.928c-0.62,0-0.877-0.396-0.877-0.968V9.685h1.805V8.529h-1.805V6.352h-1.301v7.41
	c0,1.562,0.784,2.229,2.176,2.229h0.93V14.748z"/>
<path fill="#0780B4" d="M4.958,12.464v0.053c0,2.653,2.167,3.603,4.196,3.603c1.982,0,3.977-0.948,3.977-3.047
	c0-2.04-1.676-2.591-3.245-2.948l-0.55-0.119C7.929,9.698,6.708,9.439,6.708,8.39c0-1.493,1.536-1.663,2.194-1.663
	c1.45,0,2.293,0.699,2.435,2.006l0.006,0.048h1.369l-0.001-0.057c-0.078-2.053-1.446-3.227-3.753-3.227
	c-1.837,0-3.692,0.922-3.692,2.992c0,1.844,1.542,2.333,3.261,2.708l0.338,0.075c1.451,0.309,2.823,0.602,2.823,1.843
	c0,1.538-1.561,1.767-2.492,1.767c-0.784,0-1.494-0.2-1.997-0.564c-0.567-0.412-0.868-1.032-0.868-1.801v-0.053H4.958z"/>
<path fill="#0780B4" d="M21.083,14.882c-0.404,0-1.351-0.098-1.351-1.01c0-0.88,0.719-1.135,1.417-1.259
	c0.213-0.036,0.44-0.067,0.658-0.093c0.559-0.073,1.088-0.143,1.444-0.353c0,0,0.029-0.018,0,0v1.13
	C23.252,13.91,22.662,14.882,21.083,14.882 M25.297,14.789l-0.071,0.026c-0.162,0.06-0.27,0.067-0.347,0.067
	c-0.313,0-0.327-0.169-0.327-0.758v-3.736c0-1.382-0.907-2.052-2.777-2.052c-1.133,0-3.047,0.321-3.131,2.484l-0.001,0.057h1.297
	l0.003-0.051c0.048-0.903,0.61-1.33,1.762-1.33c1.063,0,1.563,0.365,1.563,1.158c0,0.66-0.669,0.754-1.59,0.883
	c-0.264,0.037-0.53,0.076-0.814,0.13c-1.265,0.243-2.503,0.621-2.503,2.289c0,1.306,0.92,2.094,2.458,2.094
	c1.033,0,1.873-0.365,2.515-1.059c0.052,0.857,0.592,1.059,1.054,1.059c0.374,0,0.654-0.073,0.886-0.212l0.025-0.016V14.789z"/>
<path fill="#0780B4" d="M26.447,8.529v7.369h1.303v-4.154c0-1.387,0.782-2.223,2.096-2.223c0.874,0,1.42,0.546,1.42,1.41v4.967
	h1.304v-4.826c0-1.827-0.838-2.711-2.557-2.711c-1.046,0-1.827,0.409-2.336,1.224V8.529H26.447z"/>
<path fill="#0780B4" d="M37.36,14.907c-1.515,0-2.196-1.316-2.196-2.63c0-0.827,0.206-2.756,2.127-2.756
	c2.071,0,2.233,2.068,2.233,2.699C39.524,13.524,38.957,14.907,37.36,14.907 M39.481,5.76v3.666
	c-0.551-0.778-1.547-1.065-2.317-1.065c-2.051,0-3.373,1.501-3.373,3.832c0,1.07,0.305,2.032,0.849,2.715
	c0.603,0.757,1.486,1.167,2.553,1.167c1.065,0,1.889-0.393,2.289-1.064v0.887h1.304V5.76H39.481z"/>
<path fill="#0780B4" d="M44.82,14.907c-0.406,0-1.347-0.098-1.347-1.01c0-0.879,0.713-1.134,1.411-1.259
	c0.214-0.036,0.436-0.067,0.659-0.093c0.561-0.073,1.088-0.143,1.442-0.353c0,0,0.029-0.018,0,0v1.13
	C46.986,13.935,46.4,14.907,44.82,14.907 M49.035,14.813l-0.071,0.026c-0.164,0.06-0.271,0.067-0.347,0.067
	c-0.319,0-0.332-0.169-0.332-0.757v-3.736c0-1.383-0.907-2.053-2.771-2.053c-1.14,0-3.051,0.321-3.136,2.484l-0.002,0.057h1.303
	l0.002-0.051c0.048-0.903,0.605-1.33,1.76-1.33C46.505,9.521,47,9.895,47,10.68c0,0.659-0.665,0.753-1.586,0.882
	c-0.265,0.038-0.533,0.076-0.814,0.13c-1.264,0.244-2.5,0.621-2.5,2.289c0,1.306,0.915,2.094,2.455,2.094
	c1.033,0,1.873-0.365,2.512-1.059c0.051,0.857,0.591,1.059,1.053,1.059c0.379,0,0.661-0.073,0.891-0.212l0.025-0.015V14.813z"/>
<path fill="#0780B4" d="M54.098,8.362l-0.053-0.001c-1.216-0.04-2.033,0.447-2.646,1.59V8.529h-1.229v7.369h1.299v-3.286
	c0-1.961,0.823-2.882,2.573-2.882h0.055V8.362z"/>
<path fill="#0780B4" d="M57.849,14.907c-1.519,0-2.197-1.316-2.197-2.63c0-0.827,0.207-2.756,2.128-2.756
	c2.068,0,2.229,2.068,2.229,2.699C60.009,13.524,59.441,14.907,57.849,14.907 M59.968,5.76v3.666
	c-0.551-0.778-1.544-1.065-2.324-1.065c-2.041,0-3.369,1.501-3.369,3.832c0,1.07,0.3,2.032,0.854,2.715
	c0.603,0.757,1.481,1.167,2.549,1.167s1.89-0.394,2.29-1.064v0.887h1.307V5.76H59.968z"/>
<path fill="#0780B4" d="M7.646,26.141l-0.004,0.05c-0.134,1.75-1.22,2.845-2.837,2.845c-1.117,0-1.981-0.406-2.564-1.225
	C1.72,27.094,1.44,26.084,1.44,24.885c0-1.094,0.287-2.08,0.797-2.785c0.585-0.799,1.47-1.219,2.554-1.219
	c1.468,0,2.495,0.779,2.754,2.094l0.008,0.044h1.444l-0.011-0.062c-0.146-1.037-0.638-1.889-1.417-2.469
	c-0.732-0.548-1.69-0.838-2.764-0.838c-1.479,0-2.716,0.541-3.579,1.566C0.438,22.159,0,23.504,0,24.982
	c0,3.258,1.8,5.283,4.693,5.283c1.243,0,2.303-0.375,3.061-1.084c0.745-0.697,1.206-1.734,1.331-2.982l0.006-0.059H7.646z"/>
<path fill="#0780B4" d="M10.34,19.879v10.156h1.302v-4.162c0-1.396,0.787-2.225,2.095-2.225c0.879,0,1.422,0.539,1.422,1.403v4.983
	h1.303v-4.844c0-1.817-0.834-2.701-2.552-2.701c-0.773,0-1.803,0.291-2.268,1.115v-3.727H10.34z"/>
<path fill="#0780B4" d="M20.33,29.035c-0.408,0-1.351-0.098-1.351-1.02c0-0.879,0.713-1.125,1.418-1.248
	c0.212-0.037,0.434-0.066,0.648-0.094c0.566-0.072,1.096-0.143,1.448-0.354c0,0,0.029-0.017,0,0v1.122
	C22.494,28.057,21.908,29.035,20.33,29.035 M19.188,25.021l0.001-0.051c0.048-0.901,0.605-1.322,1.759-1.322
	c1.068,0,1.561,0.365,1.561,1.151c0,0.667-0.665,0.763-1.588,0.892c-0.26,0.037-0.527,0.074-0.81,0.13
	c-1.268,0.243-2.505,0.62-2.505,2.28c0,1.313,0.92,2.094,2.459,2.094c1.027,0,1.874-0.357,2.51-1.051
	c0.051,0.856,0.596,1.051,1.058,1.051c0.372,0,0.652-0.065,0.883-0.204l0.025-0.015v-1.033l-0.072,0.025
	c-0.162,0.061-0.27,0.066-0.346,0.066c-0.31,0-0.324-0.168-0.324-0.766v-3.736c0-1.375-0.911-2.044-2.78-2.044
	c-1.135,0-3.047,0.321-3.133,2.477v0.056H19.188z"/>
<path fill="#0780B4" d="M57.849,29.035c-1.519,0-2.197-1.324-2.197-2.629c0-0.826,0.207-2.758,2.128-2.758
	c2.068,0,2.229,2.07,2.229,2.7C60.009,27.645,59.441,29.035,57.849,29.035 M61.274,30.028v-10.14h-1.307v3.666
	c-0.551-0.779-1.544-1.065-2.325-1.065c-2.04,0-3.368,1.501-3.368,3.832c0,1.062,0.3,2.031,0.854,2.716
	c0.602,0.756,1.481,1.158,2.549,1.158c1.068,0,1.89-0.386,2.29-1.057v0.89H61.274z"/>
<path fill="#0780B4" d="M37.858,23.648c1.088,0,1.948,0.83,2.031,1.946h-4.048C35.937,24.611,36.59,23.648,37.858,23.648
	 M39.844,27.74c-0.224,0.838-0.854,1.295-1.802,1.295c-0.673,0-1.235-0.209-1.62-0.608c-0.391-0.413-0.599-1.003-0.586-1.673h5.381
	h0.05l0.004-0.053c0.053-1.311-0.35-2.553-1.076-3.31c-0.58-0.599-1.339-0.901-2.265-0.901c-2.01,0-3.469,1.607-3.469,3.832
	c0.078,2.465,1.369,3.873,3.539,3.873c1.659,0,2.802-0.892,3.143-2.455H39.844z"/>
<path fill="#0780B4" d="M50.012,23.648c1.085,0,1.953,0.83,2.035,1.946h-4.056C48.087,24.611,48.748,23.648,50.012,23.648
	 M51.997,27.758c-0.227,0.826-0.864,1.277-1.803,1.277c-0.672,0-1.229-0.209-1.613-0.608c-0.401-0.414-0.606-1.003-0.596-1.674
	h5.384h0.052l0.003-0.052c0.052-1.311-0.349-2.553-1.076-3.309c-0.576-0.6-1.343-0.902-2.265-0.902c-2.014,0-3.466,1.607-3.466,3.83
	c0.076,2.467,1.363,3.875,3.537,3.875c1.658,0,2.794-0.885,3.139-2.438H51.997z"/>
<path fill="#0780B4" d="M26.989,30.034v-3.293c0-1.97,0.819-2.882,2.574-2.882h0.055v-1.368l-0.053-0.001
	c-1.222-0.04-2.043,0.447-2.646,1.58v-1.422h-1.232v7.386H26.989z"/>
<path fill="#0780B4" d="M43.855,30.028v-3.287c0-1.97,0.815-2.883,2.574-2.883h0.054V22.49h-0.052
	c-1.226-0.04-2.043,0.447-2.646,1.581v-1.419h-1.232v7.376H43.855z"/>
<path fill="#0780B4" d="M33.805,28.877h-0.924c-0.624,0-0.881-0.397-0.881-0.978v-4.086h1.805v-1.155H32V20.48h-1.302v7.401
	c0,1.569,0.787,2.237,2.181,2.237h0.926V28.877z"/>
<path fill="#7DB5D6" d="M73.741,32.795c-0.891,0.531-1.697,0.847-2.544,0.847c-2.193,0-4.026-1.796-4.132-3.955l4.273-2.545
	l6.641,2.969L73.741,32.795z"/>
<path fill="#A4D0A0" d="M76.28,21.86l-3.172-1.397c-1.419-0.634-2.757-1.162-2.757-2.722c0-0.809,0.244-1.233,0.633-1.654
	l6.712,2.958l-1.665,0.96c-0.458,0.282-0.775,0.529-0.775,0.882C75.256,21.27,75.692,21.594,76.28,21.86"/>
<path fill="#7DB5D6" d="M79.397,7.217l-3.253,1.974c-0.289,0.174-0.676,0.456-0.676,0.889c0,0.493,0.752,0.87,1.419,1.188
	l-4.071-1.796c-1.199-0.528-2.396-1.127-2.396-2.573c0-0.608,0.176-1.1,0.458-1.521L79.678,0c1.056,0.598,2.078,1.807,2.078,3.429
	C81.756,5.165,80.877,6.327,79.397,7.217"/>
<path fill="#A4D0A0" d="M86.318,13.576l-0.81,0.457l-6.721-2.967l7.813-4.703c1.056,0.608,2.088,1.805,2.088,3.426
	C88.688,11.524,87.834,12.721,86.318,13.576"/>
<path fill="#7DB5D6" d="M80.644,19.282l3.976,1.747c1.49,0.666,1.948,1.451,1.948,2.439c0,0.563-0.317,1.127-0.774,1.516
	l-6.687-2.971l1.132-0.634c0.956-0.528,1.274-0.846,1.274-1.198C81.513,19.816,81.289,19.575,80.644,19.282"/>
<path fill="#25AA4A" d="M87.729,33.959c-1.691-1.304-3.496-2.185-5.69-3.18l-10.138-4.486c-2.548-1.135-4.237-2.647-4.237-5.194
	c0-2.476,1.199-3.674,2.758-4.659l0.563-0.353c-0.388,0.422-0.633,0.846-0.633,1.655c0,1.56,1.338,2.089,2.756,2.722l11.795,5.197
	c2.052,0.881,3.93,2.396,3.93,4.978C88.832,32.057,88.293,33.325,87.729,33.959"/>
<path fill="#0780B4" d="M86.532,24.524l-0.739,0.46c0.457-0.389,0.774-0.953,0.774-1.516c0-0.988-0.459-1.772-1.948-2.439
	l-12.612-5.552c-2.547-1.126-4.132-2.58-4.132-5.115c0-2.335,1.162-3.86,3.004-4.985c-0.282,0.422-0.458,0.914-0.458,1.522
	c0,1.445,1.196,2.045,2.396,2.573l12.261,5.407c2.229,0.987,4.034,2.476,4.034,5.197C89.111,22.199,88.118,23.537,86.532,24.524"/>
</svg>
